<?xml version="1.0" standalone="no"?>
<!DOCTYPE svg PUBLIC "-//W3C//DTD SVG 20010904//EN"
 "http://www.w3.org/TR/2001/REC-SVG-20010904/DTD/svg10.dtd">
<svg version="1.0" xmlns="http://www.w3.org/2000/svg"
 width="512.000000pt" height="512.000000pt" viewBox="0 0 512.000000 512.000000"
 preserveAspectRatio="xMidYMid meet">
<metadata>
Created by potrace 1.14, written by Peter Selinger 2001-2017
</metadata>
<g transform="translate(0.000000,512.000000) scale(0.100000,-0.100000)"
fill="#000000" stroke="none">
<path d="M3282 4778 c-80 -13 -153 -70 -187 -143 -27 -57 -26 -47 -28 -310
l-2 -240 -205 0 c-213 -1 -246 -6 -319 -48 -64 -37 -133 -124 -147 -187 -2
-11 -6 -30 -9 -42 -8 -35 -8 -295 -1 -307 4 -6 4 -11 -1 -11 -4 0 -8 -83 -8
-185 0 -102 4 -185 8 -185 5 0 5 -5 1 -12 -10 -16 -11 -148 -1 -148 5 0 5 -5
1 -11 -8 -14 -7 -269 1 -278 3 -3 38 -6 76 -8 220 -7 397 -145 438 -342 8 -36
11 -261 11 -700 0 -742 0 -751 -40 -834 -11 -22 -18 -43 -15 -46 3 -2 375 -4
828 -4 812 1 823 1 878 22 101 38 173 117 204 223 14 49 15 201 13 1454 l-3
1399 -27 55 c-44 88 -107 145 -193 175 -40 14 -90 18 -250 20 -110 2 -203 3
-207 4 -4 0 -8 115 -10 254 -3 235 -4 255 -24 292 -41 76 -106 127 -178 141
-51 9 -552 11 -604 2z m596 -167 c47 -25 52 -54 52 -298 l0 -228 -352 0 -352
0 -1 210 c0 116 2 225 6 244 9 43 37 71 78 80 58 11 545 5 569 -8z m-685
-1095 c9 -7 17 -18 17 -25 0 -6 3 -11 8 -11 4 0 7 -483 7 -1073 0 -1026 -1
-1074 -18 -1092 -10 -10 -36 -19 -57 -21 -30 -2 -43 3 -61 22 l-24 25 1 1069
0 1069 24 26 c26 28 73 33 103 11z m436 -3 c11 -10 22 -30 25 -45 3 -15 7 -32
11 -38 3 -5 3 -10 -2 -10 -9 0 -8 -134 2 -150 3 -5 3 -10 -2 -10 -9 0 -7
-1416 2 -1430 4 -6 3 -10 -2 -10 -9 0 -8 -134 2 -150 3 -5 3 -10 -2 -10 -4 0
-7 -71 -5 -158 2 -156 2 -157 -23 -185 -29 -30 -69 -35 -102 -12 -23 16 -48
75 -32 75 6 0 6 6 0 18 -6 10 -6 24 -1 32 5 8 6 18 3 24 -6 9 -8 79 -3 101 1
6 2 12 1 15 -2 8 -3 535 0 546 1 5 0 11 -1 14 -5 13 -3 118 3 133 3 9 2 19 -3
22 -7 4 -7 13 0 24 5 10 6 21 3 25 -6 6 -8 78 -3 101 1 6 2 15 1 20 -3 13 -3
288 -1 300 2 6 1 12 0 15 -5 13 -3 118 3 133 3 9 2 19 -3 22 -7 4 -7 13 0 24
5 10 6 21 3 25 -6 6 -8 78 -3 101 1 6 1 13 0 18 -2 8 -2 18 -1 232 1 152 2
157 26 180 29 30 74 33 104 8z m436 -8 l25 -24 0 -1071 0 -1071 -25 -24 c-32
-33 -75 -33 -109 1 l-26 27 2 1074 3 1075 24 19 c32 26 77 24 106 -6z"/>
<path d="M1095 2939 c-64 -8 -104 -28 -144 -74 -52 -59 -61 -94 -61 -231 0
-108 -2 -123 -17 -127 -10 -3 -82 -5 -160 -5 -130 0 -147 -2 -195 -25 -69 -32
-109 -70 -139 -132 l-24 -50 0 -700 0 -700 23 -45 c32 -61 67 -97 127 -128
l50 -27 975 -1 c1087 -1 1043 -4 1123 66 40 36 77 95 92 148 6 22 7 1329 1
1367 -15 91 -92 182 -179 211 -36 12 -90 17 -201 18 l-151 1 -1 127 c0 114 -3
132 -25 175 -28 56 -58 85 -118 114 -43 22 -53 22 -485 23 -242 1 -464 -2
-491 -5z m913 -163 c14 -5 29 -22 36 -39 10 -26 14 -135 7 -218 -1 -14 -53
-16 -501 -16 l-500 0 0 116 c1 122 7 143 48 158 27 10 879 9 910 -1z m-1031
-574 c11 -6 25 -24 30 -39 6 -21 10 -1001 4 -1116 -1 -10 -12 -29 -26 -42 -41
-42 -103 -28 -123 26 -5 13 -8 275 -8 582 l1 559 27 23 c28 24 58 26 95 7z
m605 9 c4 0 16 -11 28 -23 20 -21 20 -32 20 -590 l0 -569 -25 -24 c-32 -33
-76 -33 -109 0 l-24 24 -1 553 c0 340 4 565 10 584 13 41 45 55 101 45z m623
-7 c18 -8 36 -25 39 -37 3 -12 6 -273 6 -580 l0 -558 -25 -24 c-33 -34 -78
-33 -110 1 l-25 27 0 558 c0 389 3 565 11 583 10 22 40 44 62 45 5 1 24 -6 42
-15z"/>
<path d="M2740 610 c-19 -12 9 -85 49 -131 19 -23 52 -49 73 -59 44 -19 170
-25 231 -11 82 20 150 90 163 170 l6 38 -256 0 c-140 0 -260 -3 -266 -7z"/>
<path d="M3895 610 c-7 -11 12 -67 35 -104 49 -80 122 -110 254 -104 76 3 97
8 131 30 51 33 69 53 93 107 36 80 48 76 -247 77 -144 0 -264 -2 -266 -6z"/>
<path d="M723 532 c-21 -3 -21 -5 -8 -42 21 -59 52 -95 106 -125 43 -23 61
-26 142 -27 105 -1 152 14 205 65 34 32 62 85 62 116 0 14 -25 16 -242 16
-134 0 -253 -1 -265 -3z"/>
<path d="M1873 524 c-6 -17 20 -74 51 -111 14 -17 46 -41 70 -53 74 -35 233
-31 296 8 57 36 103 105 105 156 0 14 -516 14 -522 0z"/>
</g>
</svg>
